# xmcd
#
# Track frame offsets:
#	150
#	11037
#	22272
#	32245
#	51160
#	65225
#	75755
#	86552
#	98660
#	108460
#	121567
#	134567
#	144295
#	156322
#
# Disc length: 2230 seconds
#
# Revision: 0
# Processed by: cddbd v1.5.1PL0 Copyright (c) Steve Scherf et al.
# Submitted via: dBpowerAMP V4.0
#
DISCID=b608b40e
DTITLE=crioulo e seresteiro - as melhores cd 01
DYEAR=1900
DGENRE=sertanejo
TTITLE0=amor secreto
TTITLE1=o verdadeiro amor
TTITLE2=parada dura
TTITLE3=ranchinho de luto
TTITLE4=taca vazia
TTITLE5=boiadeiro adversario
TTITLE6=aquela flor
TTITLE7=quem ama perdoa
TTITLE8=fingida
TTITLE9=solta a peteca
TTITLE10=meu xodo
TTITLE11=gota de orvalho
TTITLE12=coracao solitario
TTITLE13=nao me convem
EXTD=sertanejo raiz
EXTT0=
EXTT1=
EXTT2=
EXTT3=
EXTT4=
EXTT5=
EXTT6=
EXTT7=
EXTT8=
EXTT9=
EXTT10=
EXTT11=
EXTT12=
EXTT13=
PLAYORDER=
